<?xml version="1.0" standalone="no"?>
<!DOCTYPE svg PUBLIC "-//W3C//DTD SVG 20010904//EN"
 "http://www.w3.org/TR/2001/REC-SVG-20010904/DTD/svg10.dtd">
<svg version="1.0" xmlns="http://www.w3.org/2000/svg" viewBox="0 0 459.000000 500.000000"><path d="M0 2500 l0 -2500 2295 0 2295 0 0 2500 0 2500 -2295 0 -2295 0 0
-2500z m3288 403 l2 -913 -918 0 -918 0 -3 915 -3 915 919 -2 918 -3 3 -912z
m-1660 -1151 c6 -8 12 -36 12 -60 0 -41 -1 -43 -27 -40 -23 2 -29 9 -33 38 -7
51 -34 47 -38 -6 -3 -40 -2 -41 37 -53 49 -14 61 -34 61 -98 0 -70 -17 -88
-80 -88 -40 0 -55 5 -66 19 -17 25 -19 103 -1 109 28 9 46 -5 49 -42 4 -53 33
-50 33 4 0 37 -3 41 -34 51 -46 15 -61 39 -61 99 0 55 13 80 45 88 33 8 89 -3
103 -21z m342 -123 l0 -139 38 0 c31 0 38 -4 38 -20 0 -18 -7 -20 -68 -20
l-68 0 0 163 0 164 30 -5 30 -4 0 -139z m560 5 c4 -113 8 -139 20 -139 22 0
32 67 27 178 l-4 97 31 0 31 0 -3 -147 c-2 -136 -4 -149 -23 -165 -29 -25 -94
-23 -119 2 -18 18 -20 33 -20 168 l0 148 28 -2 27 -1 5 -139z m468 135 c24 -8
33 -18 38 -44 9 -51 2 -70 -28 -73 -24 -3 -27 0 -30 35 -2 25 -8 39 -19 41
-21 4 -30 -20 -22 -59 4 -23 12 -31 35 -36 47 -9 71 -49 66 -111 -5 -61 -25
-81 -78 -82 -58 0 -80 22 -80 83 0 51 1 53 27 51 24 -1 27 -5 28 -32 1 -57 45
-71 45 -14 0 36 -10 49 -42 57 -44 11 -61 38 -60 99 0 62 5 74 36 86 29 12 48
12 84 -1z m142 -15 c8 -21 26 -169 23 -193 -1 -7 2 -9 7 -5 4 5 12 54 18 108
11 98 19 116 51 111 11 -1 16 -12 15 -36 -1 -38 -33 -280 -39 -289 -2 -3 -23
-4 -48 -2 l-45 4 -16 131 c-10 73 -20 146 -22 163 -5 29 -4 31 22 30 17 -1 30
-9 34 -22z m-1315 -6 c5 -28 35 -264 35 -284 0 -9 -11 -14 -29 -14 -27 0 -30
3 -33 38 -2 29 -7 37 -23 37 -16 0 -21 -8 -23 -37 -3 -36 -5 -38 -36 -38 l-33
0 7 43 c4 23 13 95 20 160 l13 117 48 0 c42 0 49 -3 54 -22z m411 5 c0 -11
-12 -20 -26 -23 l-25 -5 -2 -135 -1 -135 -31 -3 -31 -3 0 140 0 141 -25 0
c-18 0 -25 5 -25 20 0 18 7 20 84 20 74 0 84 -2 82 -17z m600 -3 c0 -14 -7
-20 -23 -20 -23 0 -23 -1 -23 -140 l0 -140 -30 0 -30 0 0 140 0 140 -28 0
c-21 0 -28 5 -28 20 0 18 7 20 81 20 74 0 81 -2 81 -20z m-411 -138 c-5 -4
-10 -14 -10 -22 0 -12 -16 -16 -72 -18 -40 -2 -73 1 -74 5 0 4 -2 16 -4 26 -3
15 6 17 83 17 48 0 83 -4 77 -8z"/>
<path d="M1572 2908 l3 -803 185 -3 c102 -2 461 0 798 3 l612 7 0 799 0 799
-800 0 -800 0 2 -802z m1392 396 c10 -25 7 -882 -3 -888 -4 -3 -190 -6 -412
-6 l-404 -1 0 46 0 46 348 -1 347 0 0 403 c0 222 3 407 7 410 3 4 30 7 59 7
38 0 53 -4 58 -16z m-832 -216 c8 -7 18 -21 21 -30 6 -16 -3 -18 -99 -18 -132
0 -143 -5 -140 -65 1 -25 7 -50 12 -55 5 -5 47 -17 94 -26 47 -9 95 -23 107
-30 46 -29 53 -156 11 -209 -19 -24 -23 -25 -147 -25 -127 0 -151 6 -151 37 0
10 26 13 110 13 126 0 150 12 150 73 0 53 -17 65 -118 86 -51 10 -101 26 -111
35 -24 22 -34 91 -22 146 14 64 44 77 182 79 55 1 91 -3 101 -11z m565 -208
c40 -118 76 -222 78 -231 4 -13 -2 -18 -29 -21 -33 -4 -36 -2 -51 42 -9 25
-18 51 -21 58 -2 8 -32 12 -103 12 l-99 0 -17 -55 c-17 -52 -19 -55 -51 -55
-19 0 -34 5 -34 11 0 8 115 363 145 447 3 9 21 12 57 10 l52 -3 73 -215z"/>
<path d="M2529 2915 l-37 -115 80 0 c60 0 79 3 75 13 -2 6 -19 58 -38 115 -18
56 -36 102 -39 102 -3 0 -21 -52 -41 -115z"/>
<path d="M1770 1699 c0 -13 -3 -48 -6 -76 -6 -44 -4 -53 9 -53 14 0 15 11 10
73 -6 71 -13 103 -13 56z"/>
</g></svg>
